<svg xmlns="http://www.w3.org/2000/svg" fill="none" stroke-linecap="square" stroke-miterlimit="10" viewBox="0 0 80 80"><clipPath id="a"><path d="M0 0h80v80H0V0z"/></clipPath><g clip-path="url(#a)"><path d="M0 0h80v80H0z"/><path d="M-8.9-6.84H91.2v63.02H-8.9z"/><path fill="#7368ff" d="M17.33 43.92h-1.3q-3.4 0-5.05-1.6-1.65-1.57-1.65-4.8v-6.05q0-.88-.2-1.55-.18-.67-.66-1.14-.49-.47-1.3-.7-.8-.25-2-.25H4.4v-2.46h.77q1.28 0 2.08-.2.81-.22 1.26-.64.47-.44.64-1.1.18-.67.18-1.59V17.7q0-1.49.34-2.68.36-1.18 1.16-2.01.8-.84 2.07-1.28 1.29-.46 3.13-.46h1.3v2.46H16.3q-4.08 0-4.08 3.97v4.1q0 4.27-3.72 4.82 3.75.37 3.75 4.81v6.02q0 4.03 4.05 4.03h1.03v2.45zm47.64-32.66h1.3q3.39 0 5.04 1.6 1.66 1.6 1.66 4.83v4.04q0 .88.19 1.55t.67 1.14q.48.47 1.3.72.81.23 2.01.23h.77v2.46h-.77q-1.28 0-2.1.22-.8.2-1.27.64-.46.42-.63 1.1-.17.65-.17 1.57v6.15q0 1.47-.36 2.66-.34 1.19-1.14 2.02-.8.84-2.08 1.28-1.28.45-3.12.45h-1.3v-2.45h1.05q4.06 0 4.06-3.96v-6.09q0-4.28 3.7-4.81-3.73-.4-3.73-4.83v-4.03q0-4.03-4.03-4.03h-1.05v-2.46z"/><path d="M19.67 7.78h40.66v40.67H19.67z"/><g transform="matrix(.38 0 0 .38 21 9)"><mask id="b" width="100" height="100" x="0" y="0" mask-type="alpha" maskUnits="userSpaceOnUse"><path fill="#fff" fill-rule="evenodd" d="M70.91 99.32c1.58.61 3.37.57 4.96-.2l20.6-9.9a6.25 6.25 0 0 0 3.53-5.63V16.4c0-2.4-1.38-4.59-3.54-5.63L75.87.88a6.23 6.23 0 0 0-7.1 1.2L29.36 38.04 12.19 25.01a4.16 4.16 0 0 0-5.32.24l-5.5 5a4.17 4.17 0 0 0-.01 6.17L16.25 50 1.35 63.58a4.17 4.17 0 0 0 .01 6.17l5.5 5a4.16 4.16 0 0 0 5.33.24l17.17-13.03 39.4 35.96a6.39 6.39 0 0 0 2.15 1.4Zm4.1-72.02L45.12 50 75 72.7V27.3Z" clip-rule="evenodd"/></mask><g mask="url(#b)"><path fill="#0065A9" d="M96.46 10.8 75.86.88a6.23 6.23 0 0 0-7.11 1.2L1.3 63.58a4.17 4.17 0 0 0 0 6.17l5.51 5a4.17 4.17 0 0 0 5.32.24l81.23-61.62a4.14 4.14 0 0 1 6.64 3.3v-.24c0-2.4-1.38-4.6-3.54-5.63Z"/><g filter="url(#c)"><path fill="#007ACC" d="m96.46 89.2-20.6 9.92a6.23 6.23 0 0 1-7.11-1.2L1.3 36.42a4.17 4.17 0 0 1 0-6.17l5.51-5a4.17 4.17 0 0 1 5.32-.24l81.23 61.62a4.14 4.14 0 0 0 6.64-3.3v.24c0 2.4-1.38 4.6-3.54 5.63Z"/></g><g filter="url(#d)"><path fill="#1F9CF0" d="M75.86 99.13a6.23 6.23 0 0 1-7.11-1.21c2.3 2.3 6.25.67 6.25-2.6V4.68c0-3.26-3.94-4.9-6.25-2.59a6.23 6.23 0 0 1 7.1-1.2l20.6 9.9a6.25 6.25 0 0 1 3.55 5.63V83.6c0 2.4-1.38 4.59-3.54 5.63l-20.6 9.9Z"/></g><path fill="url(#e)" fill-rule="evenodd" d="M70.85 99.32c1.58.61 3.37.57 4.96-.2l20.59-9.9a6.25 6.25 0 0 0 3.54-5.63V16.4c0-2.4-1.38-4.59-3.54-5.63L75.81.88a6.23 6.23 0 0 0-7.1 1.2L29.29 38.04 12.13 25.01a4.16 4.16 0 0 0-5.32.24l-5.5 5a4.17 4.17 0 0 0-.01 6.17L16.19 50 1.29 63.58a4.17 4.17 0 0 0 .01 6.17l5.5 5a4.16 4.16 0 0 0 5.33.24l17.16-13.03 39.42 35.96a6.25 6.25 0 0 0 2.14 1.4Zm4.1-72.02L45.05 50l29.9 22.7V27.3Z" clip-rule="evenodd" opacity=".25" style="mix-blend-mode:overlay"/></g><defs><filter id="c" width="116.73" height="92.25" x="-8.39" y="15.83" color-interpolation-filters="sRGB" filterUnits="userSpaceOnUse"><feFlood flood-opacity="0" result="BackgroundImageFix"/><feColorMatrix in="SourceAlpha" values="0 0 0 0 0 0 0 0 0 0 0 0 0 0 0 0 0 0 127 0"/><feOffset/><feGaussianBlur stdDeviation="4.17"/><feColorMatrix values="0 0 0 0 0 0 0 0 0 0 0 0 0 0 0 0 0 0 0.25 0"/><feBlend in2="BackgroundImageFix" mode="overlay" result="effect1_dropShadow"/><feBlend in="SourceGraphic" in2="effect1_dropShadow" result="shape"/></filter><filter id="d" width="47.92" height="116.15" x="60.42" y="-8.08" color-interpolation-filters="sRGB" filterUnits="userSpaceOnUse"><feFlood flood-opacity="0" result="BackgroundImageFix"/><feColorMatrix in="SourceAlpha" values="0 0 0 0 0 0 0 0 0 0 0 0 0 0 0 0 0 0 127 0"/><feOffset/><feGaussianBlur stdDeviation="4.17"/><feColorMatrix values="0 0 0 0 0 0 0 0 0 0 0 0 0 0 0 0 0 0 0.25 0"/><feBlend in2="BackgroundImageFix" mode="overlay" result="effect1_dropShadow"/><feBlend in="SourceGraphic" in2="effect1_dropShadow" result="shape"/></filter><linearGradient id="e" x1="49.94" x2="49.94" y1=".26" y2="99.74" gradientUnits="userSpaceOnUse"><stop stop-color="#fff"/><stop offset="1" stop-color="#fff" stop-opacity="0"/></linearGradient></defs></g><path d="M-10.05 40h100.1v45.26h-100.1z"/><path fill="#ff6868" d="M15.27 68.95q-.9.36-1.75.53-.84.19-1.76.19-1.47 0-2.61-.42-1.13-.44-1.9-1.3-.77-.86-1.18-2.13-.4-1.26-.4-2.93 0-1.72.45-3.05.43-1.34 1.25-2.27.8-.92 1.97-1.4 1.15-.49 2.6-.49.47 0 .88.03.42.02.81.08.4.05.8.14.4.1.84.24v2.54q-.87-.42-1.68-.59-.8-.17-1.46-.17-.97 0-1.65.34-.7.35-1.14.99-.44.62-.65 1.5-.2.86-.2 1.9 0 1.1.2 1.97.22.88.66 1.49.45.59 1.16.92.7.31 1.65.31.35 0 .74-.06.4-.08.81-.19.42-.1.81-.25l.75-.31v2.39z"/><path fill="#ffa168" d="M27.51 64.1q0 1.25-.35 2.3-.35 1.03-1.02 1.77-.66.73-1.63 1.14-.96.4-2.2.4-1.19 0-2.1-.34-.93-.34-1.59-1.02-.64-.68-.98-1.7-.34-1.03-.34-2.4 0-1.25.36-2.29.35-1.03 1.03-1.76.67-.74 1.64-1.13.97-.4 2.18-.4 1.2 0 2.11.36.94.34 1.58 1.03.64.69.97 1.7.34 1.02.34 2.34zm-2.64.07q0-1.64-.62-2.47-.61-.83-1.81-.83-.68 0-1.14.27-.47.25-.79.7-.3.45-.43 1.06-.14.6-.14 1.28 0 1.66.67 2.5.67.85 1.83.85.62 0 1.09-.25.47-.27.77-.72.3-.46.43-1.06.14-.63.14-1.33z"/><path fill="#ffe768" d="M33.13 56.75h-2.98v-1.99h5.6V67.5h3.04v1.98h-9V67.5h3.34V56.75z"/><path fill="#6cff68" d="M50.97 64.1q0 1.25-.36 2.3-.35 1.03-1.02 1.77-.65.73-1.62 1.14-.97.4-2.2.4-1.2 0-2.12-.34-.92-.34-1.57-1.02-.64-.68-.99-1.7-.34-1.03-.34-2.4 0-1.25.36-2.29.36-1.03 1.03-1.76.67-.74 1.64-1.13.97-.4 2.19-.4 1.18 0 2.1.36.94.34 1.58 1.03.65.69.97 1.7.35 1.02.35 2.34zm-2.64.07q0-1.64-.63-2.47-.6-.83-1.81-.83-.67 0-1.14.27-.47.25-.78.7-.3.45-.44 1.06-.14.6-.14 1.28 0 1.66.67 2.5.67.85 1.83.85.62 0 1.1-.25.46-.27.76-.72.3-.46.44-1.06.14-.63.14-1.33z"/><path fill="#6896ff" d="M60 63.01q0-.6-.07-1-.08-.42-.25-.69-.17-.28-.42-.4-.25-.13-.58-.13-.56 0-1.16.47-.6.45-1.31 1.52v6.7H53.6V58.9h2.3l.1 1.53q.26-.4.58-.72.33-.32.72-.56.4-.23.9-.36.5-.12 1.07-.12.81 0 1.42.28.63.26 1.05.81.42.55.63 1.36.2.81.17 1.9h-2.55z"/><path fill="#f168ff" d="M73.62 66.37q0 .9-.4 1.55-.4.64-1.07 1.04-.65.4-1.5.57-.82.18-1.7.18-1.17 0-2.1-.1-.95-.11-1.77-.32V67q.98.41 1.95.6t1.84.19q1 0 1.49-.32.5-.32.5-.84 0-.23-.11-.42-.1-.2-.4-.4-.27-.18-.8-.37-.52-.18-1.36-.43-.79-.22-1.38-.49-.58-.28-.97-.66-.37-.37-.58-.85-.18-.5-.18-1.18 0-.64.28-1.22.3-.57.87-1 .58-.43 1.44-.68.88-.25 2.03-.25 1 0 1.77.1.78.1 1.37.23v2.07q-.9-.3-1.7-.4-.8-.13-1.58-.13t-1.26.28q-.47.28-.47.78 0 .24.09.43.1.18.36.37.28.17.78.38.5.18 1.31.4.9.27 1.53.57.63.3 1 .67.4.37.55.86.17.47.17 1.1z"/></g></svg>